<mxfile host="app.diagrams.net" modified="2021-07-09T17:17:30.898Z" agent="5.0 (Macintosh)" etag="6Y9A9Pw7Nrn5p78SYUH-" version="14.8.4" type="github">
  <diagram id="60dMLfAo_RqgmbLyoDaN" name="Page-1">
    <mxGraphModel dx="1426" dy="792" grid="1" gridSize="10" guides="1" tooltips="1" connect="1" arrows="1" fold="1" page="1" pageScale="1" pageWidth="1100" pageHeight="850" math="0" shadow="0">
      <root>
        <mxCell id="0" />
        <mxCell id="1" parent="0" />
        <mxCell id="QTIdcHaUqmO6_ONM6ZPD-2" value="" style="rounded=0;whiteSpace=wrap;html=1;" parent="1" vertex="1">
          <mxGeometry x="80" y="80" width="960" height="640" as="geometry" />
        </mxCell>
        <mxCell id="QTIdcHaUqmO6_ONM6ZPD-3" value="&lt;font style=&quot;font-size: 25px&quot;&gt;Bob&#39;s Computer Repair&lt;/font&gt;" style="rounded=0;whiteSpace=wrap;html=1;" parent="1" vertex="1">
          <mxGeometry x="80" y="80" width="960" height="60" as="geometry" />
        </mxCell>
        <mxCell id="Sf1X1yzcFVw-VW7GqIeA-1" value="&lt;font style=&quot;font-size: 18px&quot;&gt;Your One-stop Shop for all Your Tech Needs&lt;/font&gt;" style="text;html=1;strokeColor=none;fillColor=none;align=center;verticalAlign=middle;whiteSpace=wrap;rounded=0;" vertex="1" parent="1">
          <mxGeometry x="370" y="230" width="360" height="20" as="geometry" />
        </mxCell>
        <mxCell id="Sf1X1yzcFVw-VW7GqIeA-2" value="" style="rounded=1;whiteSpace=wrap;html=1;" vertex="1" parent="1">
          <mxGeometry x="250" y="310" width="230" height="250" as="geometry" />
        </mxCell>
        <mxCell id="Sf1X1yzcFVw-VW7GqIeA-3" value="" style="rounded=1;whiteSpace=wrap;html=1;" vertex="1" parent="1">
          <mxGeometry x="640" y="310" width="230" height="250" as="geometry" />
        </mxCell>
        <mxCell id="Sf1X1yzcFVw-VW7GqIeA-4" value="" style="verticalLabelPosition=bottom;html=1;verticalAlign=top;align=center;strokeColor=none;fillColor=#00BEF2;shape=mxgraph.azure.computer;pointerEvents=1;" vertex="1" parent="1">
          <mxGeometry x="280" y="360" width="170" height="160" as="geometry" />
        </mxCell>
        <mxCell id="Sf1X1yzcFVw-VW7GqIeA-5" value="" style="verticalLabelPosition=bottom;html=1;verticalAlign=top;align=center;strokeColor=none;fillColor=#00BEF2;shape=mxgraph.azure.code_file;pointerEvents=1;" vertex="1" parent="1">
          <mxGeometry x="660" y="360" width="190" height="160" as="geometry" />
        </mxCell>
        <mxCell id="Sf1X1yzcFVw-VW7GqIeA-6" value="&lt;b&gt;COMPUTER REPAIR&lt;/b&gt;" style="text;html=1;strokeColor=none;fillColor=none;align=center;verticalAlign=middle;whiteSpace=wrap;rounded=0;" vertex="1" parent="1">
          <mxGeometry x="305" y="320" width="120" height="20" as="geometry" />
        </mxCell>
        <mxCell id="Sf1X1yzcFVw-VW7GqIeA-7" value="&lt;b&gt;SOFTWARE SERVICES&lt;/b&gt;" style="text;html=1;strokeColor=none;fillColor=none;align=center;verticalAlign=middle;whiteSpace=wrap;rounded=0;" vertex="1" parent="1">
          <mxGeometry x="680" y="320" width="150" height="20" as="geometry" />
        </mxCell>
      </root>
    </mxGraphModel>
  </diagram>
</mxfile>
